<?xml version="1.0" encoding="UTF-8" standalone="no"?>
<svg
   viewBox="0 0 281.23826 281.23825"
   height="281.23825"
   width="281.23825"
   version="1.1"
   id="svg2193"
   sodipodi:docname="logo-dark.svg"
   inkscape:version="1.2.2 (1:1.2.2+202212051550+b0a8486541)"
   inkscape:export-filename="logo-dark.png"
   inkscape:export-xdpi="87.384987"
   inkscape:export-ydpi="87.384987"
   xmlns:inkscape="http://www.inkscape.org/namespaces/inkscape"
   xmlns:sodipodi="http://sodipodi.sourceforge.net/DTD/sodipodi-0.dtd"
   xmlns="http://www.w3.org/2000/svg"
   xmlns:svg="http://www.w3.org/2000/svg">
  <sodipodi:namedview
     id="namedview2195"
     pagecolor="#ffffff"
     bordercolor="#000000"
     borderopacity="0.25"
     inkscape:showpageshadow="2"
     inkscape:pageopacity="0.0"
     inkscape:pagecheckerboard="0"
     inkscape:deskcolor="#d1d1d1"
     showgrid="false"
     inkscape:zoom="1.6547836"
     inkscape:cx="85.207516"
     inkscape:cy="111.49494"
     inkscape:window-width="1920"
     inkscape:window-height="1017"
     inkscape:window-x="0"
     inkscape:window-y="0"
     inkscape:window-maximized="1"
     inkscape:current-layer="svg2193" />
  <g
     id="g2152"
     style="fill:#333333;fill-opacity:1;stroke:none;stroke-opacity:1"
     transform="translate(-72.45153)">
    <svg
       version="1.1"
       id="svg2150"
       style="fill:#333333;fill-opacity:1;stroke:none;stroke-opacity:1"
       width="100%"
       height="100%" />
  </g>
  <g
     transform="matrix(1.1192749,0,0,1.1192749,5.0271883,77.470158)"
     id="g2181"
     style="fill:#333333;fill-opacity:1;stroke:none;stroke-opacity:1">
    <svg
       viewBox="0 0 244.43136 115.62313"
       height="115.62313"
       width="244.43137"
       version="1.1"
       id="svg2179"
       style="fill:#333333;fill-opacity:1;stroke:none;stroke-opacity:1">
      <g
         id="g2177"
         style="fill:#333333;fill-opacity:1;stroke:none;stroke-opacity:1">
        <svg
           viewBox="0 0 244.43136 115.62313"
           height="115.62313"
           width="244.43137"
           version="1.1"
           id="svg2175"
           style="fill:#333333;fill-opacity:1;stroke:none;stroke-opacity:1">
          <g
             id="g2173"
             style="fill:#333333;fill-opacity:1;stroke:none;stroke-opacity:1">
            <svg
               viewBox="0 0 244.43136 115.62313"
               height="115.62313"
               width="244.43137"
               version="1.1"
               id="svg2171"
               style="fill:#333333;fill-opacity:1;stroke:none;stroke-opacity:1">
              <g
                 id="g2167"
                 style="fill:#333333;fill-opacity:1;stroke:none;stroke-opacity:1">
                <svg
                   viewBox="0 0 244.43136 115.62313"
                   height="115.62313"
                   width="244.43137"
                   version="1.1"
                   id="svg2165"
                   style="fill:#333333;fill-opacity:1;stroke:none;stroke-opacity:1">
                  <g
                     id="textblocktransform"
                     style="fill:#333333;fill-opacity:1;stroke:none;stroke-opacity:1">
                    <svg
                       viewBox="0 0 244.43136 115.62313"
                       height="115.62313"
                       width="244.43137"
                       id="textblock"
                       version="1.1"
                       style="fill:#333333;fill-opacity:1;stroke:none;stroke-opacity:1">
                      <g
                         id="g2161"
                         style="fill:#333333;fill-opacity:1;stroke:none;stroke-opacity:1">
                        <svg
                           viewBox="0 0 244.43136 115.62313"
                           height="115.62313"
                           width="244.43137"
                           version="1.1"
                           id="svg2159"
                           style="fill:#333333;fill-opacity:1;stroke:none;stroke-opacity:1">
                          <g
                             id="g2157"
                             style="fill:#333333;fill-opacity:1;stroke:none;stroke-opacity:1">
                            <svg
                               width="244.43137"
                               viewBox="0.55000001 -29.450001 72.299995 34.200001"
                               height="115.62313"
                               data-palette-color="#d2d6dc"
                               version="1.1"
                               id="svg2155"
                               style="fill:#333333;fill-opacity:1;stroke:none;stroke-opacity:1">
                              <path
                                 d="m 34.85,1.25 v 0 q -1.55,0 -2.25,-1.38 -0.7,-1.37 -0.7,-3.5 0,-2.12 0.9,-5.82 v 0 q -1.75,-0.15 -5.95,-0.7 v 0 Q 19.9,-1.55 15.3,1.8 v 0 Q 11.35,4.75 7.1,4.75 v 0 Q 4.4,4.75 2.48,3.4 0.55,2.05 0.55,-0.6 v 0 q 0,-0.5 0.25,-0.93 0.25,-0.42 0.5,-0.22 0.25,0.2 0.25,1.15 v 0 q 0,1.7 1.33,2.55 Q 4.2,2.8 6.1,2.8 v 0 q 4.1,0 8.08,-2.67 3.97,-2.68 10.82,-10.48 v 0 q -7.35,-0.9 -9.7,-0.9 v 0 q -6.35,0 -7.85,4.15 v 0 q -0.2,0.55 -0.2,1.02 0,0.48 0.2,0.85 0.2,0.38 0.08,0.6 Q 7.4,-4.4 7.1,-4.42 6.8,-4.45 6.6,-4.75 v 0 Q 6.05,-5.7 6.05,-6.6 v 0 q 0,-3.1 1.13,-4.58 1.12,-1.47 2.62,-1.87 v 0 q 1.8,-0.5 4.2,-0.5 2.4,0 12.1,1.9 v 0 q 2.7,-3.1 8.2,-9.98 5.5,-6.87 5.5,-6.97 v 0 h 0.05 q 0.05,-0.05 0.25,-0.15 v 0 q 1.2,-0.7 2.6,-0.7 v 0 q 0.5,0 0.5,0.5 v 0 q 0,0.05 -0.05,0.12 -0.05,0.08 -0.1,0.2 -0.05,0.13 -0.1,0.23 v 0 q -4.8,7.95 -7.45,17.9 v 0 l -0.15,0.35 1.25,0.05 q 0.4,0.05 1.42,0.05 1.03,0 2.18,-0.48 1.15,-0.47 1.48,-1.02 0.32,-0.55 0.57,-0.25 0.25,0.3 0.05,0.65 v 0 q -0.55,1 -1.95,1.45 v 0 q -1.2,0.5 -2.37,0.5 -1.18,0 -1.53,0 v 0 L 35.1,-9.25 q -0.95,4.35 -0.95,6.92 0,2.58 1.4,2.58 v 0 q 1.35,0 4.2,-2.15 2.85,-2.15 5.35,-5.55 v 0 q 0.15,-0.2 0.4,-0.1 0.25,0.1 0.25,0.25 0,0.15 -0.07,0.37 -0.08,0.23 -0.78,1.13 v 0 q -2.1,2.8 -5.15,5.3 v 0 q -2.2,1.75 -4.9,1.75 z M 37.6,-23.9 v 0 q 0.05,-0.1 0.13,-0.28 0.07,-0.17 0.12,-0.27 v 0 q -6.25,8.55 -10.05,13.2 v 0 l 5.25,0.85 q 1.4,-5.45 4.55,-13.5 z M 51.05,1.25 v 0 q -2.55,0 -2.55,-3.08 0,-3.07 4.4,-7.57 v 0 q 0.35,-0.35 0.5,-0.55 v 0 l 0.35,-0.5 q 0.7,-0.95 0.65,-1.2 v 0 l -0.15,-0.45 q -0.2,-0.6 -1.65,-0.88 -1.45,-0.27 -2.35,-0.27 v 0 q -4.5,6.35 -5.2,7.25 -0.7,0.9 -0.95,0.75 -0.25,-0.15 -0.25,-0.35 0,-0.2 0.3,-0.6 v 0 q 2.7,-3.3 4.65,-7.05 v 0 q -0.6,-0.1 -0.9,-0.43 -0.3,-0.32 -0.05,-1.1 0.25,-0.77 1.52,-2.07 1.28,-1.3 2.23,-1.75 0.95,-0.45 1.2,-0.55 0.25,-0.1 0.55,-0.1 v 0 q 0.6,0 -0.4,1.8 v 0 l -1.95,3.1 q 2.25,0.15 3.85,0.15 v 0 l 1.75,-0.05 q 0.85,0 1.25,0.22 0.4,0.23 0.2,0.78 v 0 q -0.35,0.95 -1.75,2.55 v 0 q -3,3.5 -4.5,7.45 v 0 q -0.35,0.95 -0.35,1.65 v 0 q 0,1.45 1.05,1.45 v 0 q 0.35,0 1.32,-0.55 0.98,-0.55 3.28,-2.63 2.3,-2.07 3.7,-4.07 v 0 q 0.2,-0.25 0.47,-0.13 0.28,0.13 0.28,0.25 0,0.13 -0.1,0.28 v 0 q -0.75,1.35 -2.7,3.45 -1.95,2.1 -3.8,3.4 v 0 q -1.8,1.4 -3.9,1.4 z M 65,-13.85 v 0 q 1.25,0 1.5,0.8 v 0 q 0.1,0.45 -0.13,0.87 -0.22,0.43 -0.32,0.68 -0.1,0.25 -0.15,0.4 v 0 q -0.25,0.5 -0.5,0.95 v 0 q -2.85,5.7 -3,7.25 v 0 q -0.05,0.45 -0.05,1.15 0,0.7 0.4,1.15 v 0 q 0.7,0.8 2,0.1 1.3,-0.7 3.62,-2.8 2.33,-2.1 3.78,-4.1 v 0 q 0.2,-0.25 0.45,-0.13 0.25,0.13 0.25,0.25 0,0.13 -0.1,0.28 v 0 q -0.75,1.35 -2.7,3.45 v 0 Q 66.85,-0.1 64.7,0.7 v 0 q -1.25,0.45 -2.1,0.45 v 0 q -2,0 -2.65,-1.9 v 0 q -0.1,-0.35 -0.1,-0.85 v 0 q 0,-1.75 1.6,-5.3 v 0 q -0.25,0.55 -1.95,2.5 v 0 q -0.45,0.5 -0.7,0 v 0 q -0.05,-0.1 -0.05,-0.27 0,-0.18 0.2,-0.43 v 0 q 2.45,-3.05 3.85,-5.15 v 0 q -0.1,-0.25 0.1,-0.65 v 0 q 1,-2.8 1.75,-2.95 v 0 q 0.15,0 0.35,0 z m 3.95,-6.65 v 0 l -0.4,1.6 q 0,0.45 -0.65,1.45 -0.65,1 -1,1 v 0 q -2.15,0 -2.15,-1.05 v 0 q 0,-0.2 2.15,-1.85 v 0 L 67.75,-20 q 0.8,-0.7 1,-0.7 0.2,0 0.2,0.2 z"
                                 opacity="1"
                                 fill="#d2d6dc"
                                 class="undefined-text-0"
                                 data-fill-palette-color="primary"
                                 id="path2355"
                                 style="fill:#333333;fill-opacity:1;stroke:none;stroke-opacity:1" />
                            </svg>
                          </g>
                        </svg>
                      </g>
                    </svg>
                  </g>
                </svg>
              </g>
              <g
                 id="g2169"
                 style="fill:#333333;fill-opacity:1;stroke:none;stroke-opacity:1" />
            </svg>
          </g>
        </svg>
      </g>
    </svg>
  </g>
  <path
     d="m 43.646292,46.919064 a 136.7933,136.7933 0 0 1 196.347678,0 h -11.67068 a 125.12262,125.12262 0 0 0 -173.006319,0 H 43.646292 m 0,190.516256 a 136.7933,136.7933 0 0 0 196.347678,0 h -11.67068 a 125.12262,125.12262 0 0 1 -173.006319,0 H 43.646292"
     fill="#d2d6dc"
     stroke="transparent"
     data-fill-palette-color="tertiary"
     id="path2183"
     style="fill:#333333;fill-opacity:1;stroke:none;stroke-width:1.11927;stroke-opacity:1" />
  <defs
     id="defs2191" />
</svg>
