<?xml version="1.0" encoding="UTF-8" standalone="no"?>
<!-- Uploaded to: SVG Repo, www.svgrepo.com, Generator: SVG Repo Mixer Tools -->

<svg
   fill="#000000"
   width="800px"
   height="800px"
   viewBox="0 0 52 52"
   enable-background="new 0 0 52 52"
   xml:space="preserve"
   version="1.1"
   id="svg8"
   sodipodi:docname="new-window.svg"
   inkscape:version="1.2.2 (1:1.2.2+202212051550+b0a8486541)"
   xmlns:inkscape="http://www.inkscape.org/namespaces/inkscape"
   xmlns:sodipodi="http://sodipodi.sourceforge.net/DTD/sodipodi-0.dtd"
   xmlns="http://www.w3.org/2000/svg"
   xmlns:svg="http://www.w3.org/2000/svg"><sodipodi:namedview
   id="namedview7"
   pagecolor="#ffffff"
   bordercolor="#000000"
   borderopacity="0.25"
   inkscape:showpageshadow="2"
   inkscape:pageopacity="0.0"
   inkscape:pagecheckerboard="0"
   inkscape:deskcolor="#d1d1d1"
   showgrid="false"
   inkscape:zoom="1.09"
   inkscape:cx="260.55046"
   inkscape:cy="327.98165"
   inkscape:window-width="1920"
   inkscape:window-height="1017"
   inkscape:window-x="0"
   inkscape:window-y="0"
   inkscape:window-maximized="1"
   inkscape:current-layer="svg8" /><defs
   id="defs12" />
<g
   id="g6"
   style="fill:#ff4d01;fill-opacity:1">
	<path
   d="M48.7,2H29.6C28.8,2,28,2.5,28,3.3v3C28,7.1,28.7,8,29.6,8h7.9c0.9,0,1.4,1,0.7,1.6l-17,17   c-0.6,0.6-0.6,1.5,0,2.1l2.1,2.1c0.6,0.6,1.5,0.6,2.1,0l17-17c0.6-0.6,1.6-0.2,1.6,0.7v7.9c0,0.8,0.8,1.7,1.6,1.7h2.9   c0.8,0,1.5-0.9,1.5-1.7v-19C50,2.5,49.5,2,48.7,2z"
   id="path2"
   style="fill:#ff4d01;fill-opacity:1" />
	<path
   d="M36.3,25.5L32.9,29c-0.6,0.6-0.9,1.3-0.9,2.1v11.4c0,0.8-0.7,1.5-1.5,1.5h-21C8.7,44,8,43.3,8,42.5v-21   C8,20.7,8.7,20,9.5,20H21c0.8,0,1.6-0.3,2.1-0.9l3.4-3.4c0.6-0.6,0.2-1.7-0.7-1.7H6c-2.2,0-4,1.8-4,4v28c0,2.2,1.8,4,4,4h28   c2.2,0,4-1.8,4-4V26.2C38,25.3,36.9,24.9,36.3,25.5z"
   id="path4"
   style="fill:#ff4d01;fill-opacity:1" />
</g>
</svg>
