<?xml version="1.0" standalone="no"?>
<!DOCTYPE svg PUBLIC "-//W3C//DTD SVG 20010904//EN"
 "http://www.w3.org/TR/2001/REC-SVG-20010904/DTD/svg10.dtd">
<svg version="1.0" xmlns="http://www.w3.org/2000/svg"
 width="700.000000pt" height="700.000000pt" viewBox="0 0 700.000000 700.000000"
 preserveAspectRatio="xMidYMid meet">
<metadata>
Created by potrace 1.14, written by Peter Selinger 2001-2017
</metadata>
<g transform="translate(0.000000,700.000000) scale(0.100000,-0.100000)"
fill="#000000" stroke="none">
<path d="M29 6971 l-29 -29 0 -3442 0 -3442 29 -29 29 -29 3442 0 3442 0 29
29 29 29 0 3442 0 3442 -29 29 -29 29 -3442 0 -3442 0 -29 -29z m451 -300
c-162 -82 -296 -148 -297 -147 -2 2 -5 234 -4 274 l1 22 297 0 297 0 -294
-149z m750 1 c-162 -81 -333 -165 -380 -186 -312 -143 -290 -133 -485 -216
-93 -40 -174 -76 -180 -80 -7 -6 -9 27 -8 93 1 56 2 123 2 150 1 42 4 49 29
58 47 17 416 205 622 315 20 11 98 14 360 13 l335 0 -295 -147z m1005 120
c-113 -62 -755 -372 -770 -372 -2 0 -36 -15 -77 -34 -262 -122 -1190 -488
-1202 -475 -6 6 -8 54 -7 150 l1 87 103 42 c137 57 494 215 642 285 174 82
658 325 670 336 5 5 155 9 350 9 l340 0 -50 -28z m555 -110 c-578 -289 -1134
-527 -1715 -734 -77 -27 -194 -69 -260 -93 -204 -72 -626 -207 -632 -201 -9 9
-6 197 4 206 4 4 109 44 233 90 631 232 1354 551 1880 830 l75 40 345 -1 345
0 -275 -137z m620 25 l0 -113 -42 -19 c-24 -10 -103 -47 -176 -82 -73 -35
-134 -63 -136 -63 -2 0 -42 -18 -88 -39 -167 -79 -689 -295 -873 -362 -27 -10
-88 -32 -135 -49 -355 -133 -1155 -395 -1415 -464 -5 -2 -17 -6 -25 -9 -8 -3
-60 -20 -115 -37 -55 -17 -107 -34 -115 -37 -81 -31 -110 -39 -111 -29 -3 42
3 192 9 197 4 4 129 46 277 94 456 148 1173 412 1400 515 11 5 54 23 95 40 41
17 95 41 120 52 25 11 104 47 175 78 251 112 763 363 855 419 31 19 50 21 168
21 l132 0 0 -113z m3410 -1497 l0 -1610 -37 -1 c-21 0 -262 0 -535 0 -551 -1
-553 -1 -570 -64 -10 -39 -4 -57 50 -140 127 -195 140 -422 35 -630 -136 -271
-462 -406 -749 -310 -123 41 -208 99 -292 199 -114 135 -164 317 -135 493 17
98 42 161 105 260 41 66 48 83 44 112 -3 19 -15 44 -26 55 -20 21 -30 21 -543
23 -287 1 -534 2 -549 3 l-28 0 0 530 c0 581 0 582 -58 597 -42 11 -62 5 -123
-37 -325 -226 -753 -110 -921 250 -46 97 -59 155 -59 254 -1 103 22 201 69
296 50 104 168 221 273 273 41 21 84 39 95 41 10 2 39 9 62 16 24 6 84 10 134
9 131 -3 229 -35 347 -114 80 -54 111 -57 152 -16 l29 29 0 546 0 546 1615 0
1615 0 0 -1610z m-3410 1168 c0 -95 -4 -168 -8 -162 -4 7 -89 -23 -247 -87
-132 -53 -268 -107 -302 -119 -36 -13 -60 -27 -56 -33 3 -6 1 -7 -6 -3 -15 9
-53 -3 -46 -15 3 -5 0 -6 -7 -4 -8 3 -90 -22 -183 -55 -437 -157 -812 -275
-1470 -463 -335 -96 -486 -143 -711 -223 -101 -35 -186 -64 -188 -64 -3 0 -6
47 -8 103 -2 65 1 104 7 104 6 0 100 29 210 66 195 64 297 96 500 156 322 95
912 294 1200 404 278 107 637 253 790 322 33 15 74 33 90 40 169 75 303 137
378 176 28 15 53 28 55 28 1 1 2 -77 2 -171z m0 -318 l0 -130 -37 16 c-73 32
-208 61 -293 63 -46 1 -86 3 -87 4 -1 2 80 35 180 75 100 40 193 79 207 86 14
8 26 14 28 15 1 1 2 -58 2 -129z m-872 -227 c-76 -63 -142 -144 -223 -277 -11
-17 -295 -101 -735 -216 -292 -77 -440 -118 -675 -190 -123 -37 -289 -91 -310
-100 -11 -5 -51 -20 -90 -33 -123 -43 -269 -98 -292 -109 -13 -6 -25 -9 -27
-7 -5 4 -8 89 -7 159 1 45 2 45 49 61 26 9 148 50 272 92 212 71 322 106 500
157 41 12 89 26 105 31 17 5 147 42 290 83 143 41 314 91 380 111 150 45 743
243 764 255 32 19 32 9 -1 -17z m-268 -405 c-10 -35 -21 -81 -25 -102 -3 -22
-7 -42 -10 -44 -2 -2 -163 -44 -357 -93 -627 -157 -1055 -290 -1522 -473 -93
-37 -170 -65 -172 -63 -1 1 -4 50 -6 107 l-3 105 25 1 c14 1 86 25 160 53 319
123 969 324 1215 377 11 2 128 33 260 69 289 80 253 69 350 99 44 13 85 24 92
25 7 1 5 -19 -7 -61z m-33 -230 c0 -18 2 -62 6 -98 3 -36 4 -60 1 -54 -5 11
-16 10 -94 -10 -8 -3 -55 -14 -105 -25 -429 -97 -919 -248 -1475 -454 -30 -11
-131 -52 -225 -91 l-170 -71 2 65 c1 36 2 82 2 103 1 35 4 39 44 56 234 101
812 300 1127 389 149 43 702 185 765 198 11 2 34 8 50 13 59 18 73 14 72 -21z
m39 -240 c12 -35 25 -71 28 -80 7 -16 -18 -28 -94 -43 -52 -11 -356 -90 -460
-120 -69 -20 -161 -47 -205 -60 -298 -86 -827 -273 -1020 -360 -16 -8 -75 -32
-130 -55 -55 -23 -126 -55 -157 -70 l-57 -29 -3 104 -3 104 135 57 c266 112
434 176 730 274 270 90 686 213 827 245 19 4 270 66 338 83 22 5 42 10 45 11
3 1 15 -27 26 -61z m64 -151 c0 -7 18 -36 40 -65 22 -29 40 -56 40 -60 0 -4
-69 -24 -153 -46 -706 -179 -1410 -426 -1980 -695 -60 -28 -109 -51 -110 -51
-2 0 0 101 2 187 1 24 -1 24 246 130 393 169 836 325 1320 464 99 28 187 52
195 54 54 11 349 87 365 94 23 10 35 5 35 -12z m146 -189 c10 -11 45 -40 76
-64 l58 -42 -53 -12 c-28 -7 -126 -33 -217 -57 -91 -24 -172 -46 -180 -48 -24
-5 -173 -49 -335 -99 -367 -111 -904 -311 -1197 -445 -35 -16 -85 -39 -113
-51 -27 -13 -116 -55 -197 -95 l-147 -72 -3 100 c-2 54 -1 102 2 107 9 13 330
159 530 241 80 33 154 64 165 69 104 46 526 192 840 290 126 40 526 150 598
165 10 2 26 6 35 9 9 3 30 7 46 10 16 3 31 8 34 11 12 12 40 4 58 -17z m302
-183 c39 -13 96 -28 126 -31 31 -4 56 -10 56 -13 0 -3 -82 -26 -183 -49 -181
-44 -250 -62 -487 -129 -384 -108 -819 -255 -1165 -395 -161 -65 -391 -165
-458 -200 -38 -19 -59 -21 -249 -22 -115 0 -208 2 -208 5 0 10 349 176 560
266 328 140 808 315 1095 397 33 10 71 22 85 27 14 5 34 11 45 14 11 3 85 23
165 46 80 22 223 60 318 84 95 23 176 45 179 48 3 3 15 -1 27 -9 13 -7 54 -25
94 -39z m612 25 c-8 -5 -19 -10 -25 -10 -5 0 -3 5 5 10 8 5 20 10 25 10 6 0 3
-5 -5 -10z m-50 -20 c-8 -5 -22 -9 -30 -9 -10 0 -8 3 5 9 27 12 43 12 25 0z
m56 -157 c-3 -3 -36 -12 -73 -20 -37 -8 -75 -16 -83 -18 -8 -2 -58 -13 -110
-25 -587 -132 -1457 -405 -1875 -588 l-79 -35 -211 1 c-260 0 -248 -1 -200 21
288 135 751 312 1145 438 312 99 888 256 1090 297 122 25 153 34 135 39 -13 4
-10 5 10 4 17 -1 36 2 43 7 7 4 19 5 27 2 8 -3 17 -1 20 3 3 5 15 7 28 4 13
-3 17 -1 11 4 -7 5 11 9 43 9 30 1 60 7 66 13 9 9 13 -7 15 -70 2 -45 1 -84
-2 -86z m4 -121 c0 -64 -3 -89 -12 -89 -16 0 -181 -40 -428 -103 -489 -126
-1001 -293 -1453 -474 -202 -81 -230 -95 -249 -124 l-20 -32 26 10 c14 5 46
18 69 29 24 11 68 29 98 41 30 11 68 27 84 34 33 15 346 134 385 146 14 5 124
42 245 83 291 98 617 193 955 278 151 38 281 69 288 69 8 0 12 -22 12 -78 l0
-78 -77 -19 c-43 -10 -83 -20 -88 -21 -6 -1 -60 -15 -120 -32 -107 -30 -240
-67 -300 -82 -16 -4 -113 -34 -215 -65 -116 -37 -201 -58 -229 -57 -46 1 -94
-18 -108 -42 -4 -7 -57 -30 -118 -51 -253 -86 -714 -271 -919 -369 l-68 -33 6
49 c10 71 49 171 95 239 56 83 66 120 46 158 -8 17 -20 31 -25 31 -65 0 180
99 595 240 267 91 555 179 750 230 39 11 115 31 170 45 55 15 107 28 115 30 8
2 80 19 160 38 80 19 159 38 175 41 73 13 131 29 140 37 5 5 10 9 12 9 2 0 3
-40 3 -88z m-1 -424 c0 -51 -3 -88 -5 -82 -3 7 -42 0 -114 -19 -60 -17 -107
-33 -105 -36 3 -5 -545 -6 -585 -1 -32 4 549 173 705 206 11 2 34 8 50 13 56
17 55 18 54 -81z m1 -123 c0 -16 -4 -17 -45 -17 -41 0 -42 2 -5 16 47 18 50
18 50 1z m-1125 -167 c17 -29 44 -77 62 -107 39 -68 72 -187 74 -266 2 -77
-11 -176 -21 -170 -18 11 -465 -176 -782 -328 -102 -48 -126 -63 -117 -74 21
-25 -1 -13 -69 36 -139 102 -236 253 -257 401 -17 130 -22 113 42 143 32 14
89 40 127 57 39 17 84 37 100 45 138 63 763 306 806 314 3 0 19 -23 35 -51z
m-1230 -50 c2 -2 -9 -42 -25 -88 -150 -442 103 -921 555 -1046 83 -23 115 -27
225 -26 436 3 794 369 790 807 -1 131 -11 190 -52 293 -11 29 -18 55 -15 58 4
4 733 8 855 5 l22 -1 0 -531 c0 -487 1 -533 17 -560 10 -17 29 -32 43 -35 14
-3 30 -7 35 -9 11 -3 72 31 93 52 25 25 157 81 224 96 143 32 316 3 441 -73
165 -100 283 -278 304 -459 24 -209 -35 -380 -182 -526 -60 -60 -99 -89 -155
-116 -113 -54 -146 -63 -260 -66 -152 -4 -257 28 -385 116 -73 50 -105 52
-146 12 l-29 -29 0 -546 0 -546 -1615 0 -1615 0 0 1609 0 1610 28 3 c38 4 843
1 847 -4z m3411 0 c3 -3 -2 -23 -11 -43 -8 -21 -22 -64 -30 -95 -134 -519 250
-1022 780 -1022 182 0 342 55 490 167 73 56 85 67 154 155 168 213 212 540
106 794 -9 20 -14 40 -11 44 2 4 199 7 438 7 l433 0 3 -1613 2 -1612 -1615 0
-1615 0 0 445 0 445 38 -16 c107 -46 174 -58 322 -59 124 0 157 4 224 24 317
93 547 365 583 685 39 356 -145 681 -473 832 -192 89 -453 94 -642 13 -24 -11
-46 -19 -48 -19 -2 0 -4 195 -4 434 l0 435 28 3 c47 5 842 1 848 -4z m-2104
-610 c-50 -104 -109 -176 -193 -239 -67 -50 -173 -103 -192 -96 -6 2 17 14 52
26 55 21 207 119 197 128 -5 5 -297 -122 -414 -179 -29 -15 -161 5 -240 35
l-56 21 106 51 c207 99 418 191 623 273 77 31 142 60 144 64 1 5 5 7 8 4 3 -3
-13 -42 -35 -88z m-499 -365 c-7 -2 -21 -2 -30 0 -10 3 -4 5 12 5 17 0 24 -2
18 -5z"/>
<path d="M2210 3299 c-301 -111 -629 -247 -875 -362 -71 -33 -131 -61 -132
-62 -1 0 0 -10 3 -22 6 -20 9 -19 87 19 244 120 695 306 990 409 47 17 67 29
65 39 -5 24 -27 20 -138 -21z"/>
<path d="M2275 3094 c-171 -64 -293 -113 -342 -135 -24 -10 -45 -19 -48 -19
-2 0 -28 -11 -57 -24 -29 -13 -87 -38 -128 -56 -41 -18 -122 -55 -180 -82 -58
-28 -129 -61 -157 -74 -55 -25 -61 -32 -42 -51 8 -8 26 -3 67 17 177 88 660
300 682 300 6 0 18 4 28 10 16 9 69 30 240 94 55 21 72 32 72 47 0 10 -3 19
-7 19 -5 -1 -62 -21 -128 -46z"/>
</g>
</svg>
