<?xml version="1.0" encoding="UTF-8" standalone="no"?>
<!-- Created with Inkscape (http://www.inkscape.org/) -->

<svg
   width="25.233538mm"
   height="4.3314371mm"
   viewBox="0 0 25.233537 4.3314372"
   version="1.1"
   id="svg17126"
   xml:space="preserve"
   inkscape:version="1.2.2 (1:1.2.2+202212051550+b0a8486541)"
   sodipodi:docname="manin.svg"
   xmlns:inkscape="http://www.inkscape.org/namespaces/inkscape"
   xmlns:sodipodi="http://sodipodi.sourceforge.net/DTD/sodipodi-0.dtd"
   xmlns="http://www.w3.org/2000/svg"
   xmlns:svg="http://www.w3.org/2000/svg"><sodipodi:namedview
     id="namedview17128"
     pagecolor="#ffffff"
     bordercolor="#000000"
     borderopacity="0.25"
     inkscape:showpageshadow="2"
     inkscape:pageopacity="0.0"
     inkscape:pagecheckerboard="0"
     inkscape:deskcolor="#d1d1d1"
     inkscape:document-units="mm"
     showgrid="false"
     inkscape:zoom="8"
     inkscape:cx="42"
     inkscape:cy="29.0625"
     inkscape:window-width="1920"
     inkscape:window-height="1017"
     inkscape:window-x="0"
     inkscape:window-y="0"
     inkscape:window-maximized="1"
     inkscape:current-layer="layer1" /><defs
     id="defs17123" /><g
     inkscape:label="Layer 1"
     inkscape:groupmode="layer"
     id="layer1"
     transform="translate(-159.37443,-177.67976)"><g
       id="g18308"
       transform="matrix(1.2555654,0,0,1.2555654,-59.226589,-45.962317)"><path
         d="m 177.51877,181.5704 h -1.68439 -2.7e-4 -1.68437 c -0.0244,0 -0.0441,-0.0198 -0.0441,-0.0441 v -3.36159 c 0,-0.0244 0.0198,-0.0441 0.0441,-0.0441 h 1.68437 2.7e-4 1.68437 c 0.0244,0 0.0441,0.0197 0.0441,0.0441 v 3.36159 c 2e-5,0.0244 -0.0198,0.0441 -0.0441,0.0441 z m -1.64027,-0.0883 h 1.59613 v -1.68478 h -0.52322 c -0.0171,0 -0.0326,0.01 -0.0399,0.0252 -0.006,0.0135 -0.005,0.0292 0.002,0.0418 0.002,0.004 0.004,0.008 0.007,0.0117 0.0436,0.0551 0.0668,0.1213 0.067,0.1913 -5.8e-4,0.17047 -0.14002,0.3094 -0.31079,0.3094 -0.17137,0 -0.31078,-0.13943 -0.31078,-0.3108 7.2e-4,-0.0699 0.0239,-0.13533 0.067,-0.1899 0.003,-0.004 0.005,-0.008 0.007,-0.0116 0.008,-0.0126 0.009,-0.0283 0.002,-0.0419 -0.007,-0.0154 -0.0228,-0.0252 -0.0399,-0.0252 h -0.52322 v 0.52829 c 0.0542,-0.0267 0.11361,-0.0406 0.17538,-0.0406 l 0.003,2e-5 0.002,-2e-5 c 0.22005,0 0.39904,0.17901 0.39904,0.39904 0,0.22003 -0.17901,0.39904 -0.39904,0.39904 l -0.003,-2e-5 -0.002,2e-5 c -0.0617,0 -0.12119,-0.0139 -0.17538,-0.0406 v 0.43965 z m -1.68464,0 h 1.59613 v -0.51969 c 0,-0.002 1.1e-4,-0.003 3e-4,-0.005 5.5e-4,-0.0164 0.0102,-0.0312 0.0252,-0.0384 0.0154,-0.007 0.0336,-0.005 0.0468,0.006 0.0555,0.0454 0.12269,0.0696 0.19435,0.0701 0.16957,-0.001 0.30802,-0.14059 0.30802,-0.31079 0,-0.17021 -0.13845,-0.30964 -0.30862,-0.3108 -0.071,4.9e-4 -0.13825,0.0247 -0.19375,0.0701 -0.0132,0.0108 -0.0314,0.013 -0.0468,0.006 -0.015,-0.007 -0.0246,-0.0219 -0.0252,-0.0384 -1.7e-4,-0.002 -2.8e-4,-0.003 -2.8e-4,-0.005 v -0.51254 h -0.4384 c 0.0259,0.0535 0.0394,0.11221 0.0394,0.17315 v 0.003 c 0,0.22003 -0.17901,0.39902 -0.39904,0.39902 -0.22003,0 -0.39902,-0.17901 -0.39902,-0.39902 v -0.003 c 0,-0.0609 0.0135,-0.11961 0.0394,-0.17315 h -0.43842 z m 0.56096,-1.61739 c -0.002,0.004 -0.004,0.008 -0.007,0.0117 -0.0436,0.0551 -0.0668,0.1213 -0.067,0.1913 5.8e-4,0.17047 0.14003,0.3094 0.31078,0.3094 0.17079,0 0.31021,-0.13893 0.3108,-0.3097 -2.5e-4,-0.0697 -0.0234,-0.13585 -0.067,-0.191 -0.003,-0.004 -0.005,-0.008 -0.007,-0.0117 -0.008,-0.0125 -0.009,-0.0283 -0.002,-0.0418 0.007,-0.0154 0.0228,-0.0252 0.0399,-0.0252 h 0.52322 v -0.43247 c -0.0542,0.0267 -0.11362,0.0406 -0.17539,0.0406 l -0.004,-2e-5 c -0.2208,0 -0.3998,-0.17901 -0.3998,-0.39902 0,-0.22005 0.17902,-0.39904 0.39904,-0.39904 l 0.003,2e-5 0.002,-2e-5 c 0.0618,0 0.12121,0.0139 0.17539,0.0406 v -0.43969 h -1.59613 v 1.58896 h 0.52322 c 0.017,0 0.0326,0.01 0.0399,0.0252 0.006,0.0135 0.005,0.0292 -0.002,0.0418 z m 2.28141,0.0281 h 0.43842 v -1.68402 h -1.59613 v 0.51971 c 0,0.002 -1.1e-4,0.003 -2.8e-4,0.005 -5.7e-4,0.0164 -0.0103,0.0312 -0.0252,0.0384 -0.0154,0.007 -0.0336,0.005 -0.0468,-0.006 -0.0555,-0.0454 -0.12269,-0.0696 -0.19435,-0.0701 -0.16957,0.001 -0.30802,0.14059 -0.30802,0.31079 0,0.16963 0.13794,0.30905 0.30751,0.31078 0.0715,-2.4e-4 0.13907,-0.0245 0.19486,-0.0701 0.0132,-0.0108 0.0314,-0.013 0.0468,-0.006 0.015,0.007 0.0247,0.022 0.0252,0.0384 1.7e-4,0.002 2.8e-4,0.003 2.8e-4,0.005 v 0.60871 h 0.43841 c -0.0257,0.0531 -0.0392,0.11133 -0.0394,0.17176 l -2e-5,0.004 c 0,0.22004 0.17901,0.39904 0.39904,0.39904 0.22003,0 0.39904,-0.17901 0.39904,-0.39904 v -0.002 c 0,-0.0609 -0.0135,-0.11962 -0.0394,-0.17317 z"
         id="path6946"
         style="fill:#ff4d01;fill-opacity:1;stroke-width:0.0176489"
         sodipodi:nodetypes="cccssssccssccccccsccccsccccscccccsccccccccsccccscsccsccsssssccccccsccccsccccscccccccscccccccsccccsccccsccccssscc" /><path
         id="path3488"
         style="fill:#ff4d01;fill-opacity:1;fill-rule:nonzero;stroke:none;stroke-width:0.000713903;stroke-opacity:1"
         d="m 174.48468,178.20968 c -0.0932,0.0496 -0.18975,0.0984 -0.28971,0.14655 v 0.0226 c 0.11551,-0.0554 0.22678,-0.11179 0.33334,-0.16913 z m 0.37333,0 c -0.20402,0.10715 -0.42407,0.21074 -0.66304,0.3095 v 0.0218 c 0.25597,-0.10546 0.49083,-0.21633 0.70707,-0.33132 z m 0.37744,0 c -0.30586,0.16024 -0.65024,0.31171 -1.04048,0.45069 v 0.0214 c 0.40841,-0.14519 0.76706,-0.30389 1.08381,-0.47204 z m 0.38272,0 c -0.38322,0.20209 -0.82871,0.38991 -1.35327,0.55543 -0.0237,0.008 -0.0466,0.0156 -0.0699,0.0234 v 0.0214 c 0.0253,-0.009 0.0502,-0.0173 0.076,-0.0255 0.54129,-0.17082 0.99874,-0.3653 1.39046,-0.57473 z m 0.16918,0.11089 c -0.38031,0.18563 -0.81968,0.35695 -1.33261,0.50716 -0.0271,0.008 -0.054,0.0163 -0.081,0.0248 -0.0608,0.019 -0.12027,0.039 -0.17877,0.0597 v 0.0212 c 0.0859,-0.0305 0.17426,-0.0593 0.26523,-0.0862 0.49212,-0.14434 0.93205,-0.31074 1.32715,-0.50199 z m -1.4e-4,0.1794 c -0.33641,0.14203 -0.71467,0.27318 -1.14281,0.38977 -0.15709,0.0434 -0.30692,0.0916 -0.44943,0.14468 v 0.0216 c 0.144,-0.0539 0.29541,-0.10284 0.45435,-0.14674 0.25492,-0.0694 0.496,-0.14474 0.72455,-0.22605 0.0332,-0.0243 0.07,-0.0437 0.10899,-0.0565 0.0341,-0.0112 0.0484,-0.0147 0.0858,-0.0157 0.0742,-0.0285 0.14707,-0.0576 0.21847,-0.0875 3e-5,-0.007 2e-5,-0.0163 4e-5,-0.0236 z m -0.54214,0.33907 c -0.13205,0.0393 -0.26893,0.0772 -0.41139,0.11343 -0.22745,0.0584 -0.44028,0.12677 -0.63871,0.20484 v 0.0218 c 0.19989,-0.079 0.41458,-0.14831 0.64417,-0.20723 0.13562,-0.0344 0.26727,-0.0706 0.39549,-0.10825 0.003,-0.008 0.007,-0.0165 0.0104,-0.0246 z m -0.0329,0.12915 c -0.0621,0.0159 -0.1245,0.0316 -0.18864,0.0469 -0.30057,0.0721 -0.57644,0.16112 -0.82855,0.26578 v 0.0217 c 0.25325,-0.10555 0.53069,-0.19527 0.83346,-0.26793 0.0616,-0.0147 0.12214,-0.0298 0.1822,-0.0451 3.7e-4,-0.007 8.9e-4,-0.0143 0.002,-0.0214 z m 0.002,0.10929 c -2.3e-4,5e-5 -4.5e-4,1.1e-4 -6.8e-4,1.6e-4 -0.37565,0.0847 -0.7152,0.19337 -1.01837,0.32598 v 0.0222 c 0.304,-0.13372 0.64527,-0.24341 1.02274,-0.32846 -0.001,-0.006 -0.003,-0.0129 -0.004,-0.0199 z m 0.0309,0.0982 c -0.38898,0.0917 -0.73951,0.20877 -1.04995,0.35196 v 0.0224 c 0.31245,-0.14488 0.6661,-0.26334 1.05926,-0.35576 -0.003,-0.006 -0.006,-0.0123 -0.009,-0.0186 z m 0.0583,0.0905 c -0.41385,0.0999 -0.78357,0.22919 -1.10823,0.38726 v 0.0225 c 0.32822,-0.16081 0.70301,-0.2918 1.12374,-0.39256 -0.005,-0.006 -0.0105,-0.0113 -0.0155,-0.0172 z m 0.0947,0.0811 c -0.45393,0.1098 -0.85517,0.25436 -1.20296,0.43291 v 0.0163 h 0.0134 c 0.35069,-0.17997 0.75608,-0.32483 1.21542,-0.43442 -0.009,-0.005 -0.0174,-0.01 -0.0259,-0.0148 z m 0.38942,0.0245 -0.035,0.0127 c -0.0574,0.0208 -0.11629,0.0279 -0.1731,0.023 -0.43342,0.0995 -0.82049,0.22926 -1.16085,0.389 h 0.0468 6.1e-4 c 0.38247,-0.17523 0.8235,-0.31325 1.3216,-0.41358 z m 0,0.0895 c -0.4054,0.087 -0.77219,0.19924 -1.09998,0.33636 0.0225,6.1e-4 0.0368,0.002 0.0448,0.003 0.31603,-0.12916 0.66796,-0.23539 1.05515,-0.31863 z m 0,0.0998 c -0.38498,0.088 -0.73455,0.19922 -1.04815,0.33332 -0.001,0.002 -0.002,0.004 -0.003,0.006 -0.005,0.008 -0.01,0.016 -0.0143,0.0242 0.31771,-0.13805 0.67329,-0.25209 1.06582,-0.34212 z m 0,0.10042 c -0.167,0.0406 -0.32717,0.0856 -0.48048,0.13505 h 0.0667 c 0.13283,-0.0414 0.2709,-0.0794 0.41381,-0.11426 z m 0,0.10145 c -0.042,0.0108 -0.0831,0.0222 -0.12413,0.0336 h 0.0755 c 0.0163,-0.004 0.0322,-0.009 0.0486,-0.0132 z m -0.56212,0.0605 c -0.19082,0.0645 -0.37047,0.13624 -0.53923,0.21483 -8e-4,0.008 -0.001,0.0154 -0.002,0.023 0.16802,-0.0787 0.34689,-0.15053 0.53702,-0.21522 -9.1e-4,-0.008 3.4e-4,-0.0158 0.004,-0.0227 z m 0.0348,0.099 c -0.19957,0.0698 -0.38733,0.14714 -0.56248,0.23241 0.002,0.006 0.004,0.0126 0.007,0.0187 0.17577,-0.0857 0.36423,-0.16343 0.56476,-0.23346 -0.003,-0.006 -0.006,-0.0118 -0.009,-0.0177 z m 0.0342,0.0991 c -0.19304,0.0698 -0.37515,0.14655 -0.54505,0.23092 0.004,0.005 0.009,0.0105 0.0131,0.0156 0.16677,-0.0826 0.34544,-0.15775 0.53464,-0.22631 -6.6e-4,-0.007 -0.002,-0.0135 -0.003,-0.0202 z m -0.003,0.11266 c -0.15918,0.0608 -0.31012,0.12673 -0.45311,0.19767 0.007,0.004 0.0142,0.008 0.0215,0.0118 0.1346,-0.0662 0.27616,-0.12807 0.4251,-0.1853 0.003,-0.008 0.005,-0.0161 0.006,-0.0241 z m -0.0813,0.14664 c -0.0707,0.0297 -0.13957,0.0607 -0.20691,0.0925 0.0181,-4.9e-4 0.0358,-0.002 0.0509,-0.005 0.006,-0.001 0.0131,-0.003 0.0197,-0.005 0.0232,-0.0106 0.0465,-0.0211 0.07,-0.0314 0.024,-0.0143 0.0467,-0.0316 0.0663,-0.0506 z" /></g><text
       xml:space="preserve"
       style="font-size:4.23333px;font-family:'Roboto Slab';-inkscape-font-specification:'Roboto Slab';text-align:center;text-anchor:middle;fill:#ff4d01;stroke:none;stroke-width:1.05833;stroke-linecap:square"
       x="174.74644"
       y="181.96463"
       id="text17687"><tspan
         sodipodi:role="line"
         id="tspan17685"
         style="font-style:normal;font-variant:normal;font-weight:normal;font-stretch:normal;font-family:'Latin Modern Math';-inkscape-font-specification:'Latin Modern Math';stroke:none;stroke-width:1.05833"
         x="174.74644"
         y="181.96463">manin-cms</tspan></text></g></svg>
